<?xml version="1.0" standalone="no"?>
<!DOCTYPE svg PUBLIC "-//W3C//DTD SVG 20010904//EN"
 "http://www.w3.org/TR/2001/REC-SVG-20010904/DTD/svg10.dtd">
<svg version="1.0" xmlns="http://www.w3.org/2000/svg"
 width="129" height="129" viewBox="0 0 200.000000 200.000000"
 preserveAspectRatio="xMidYMid meet">

<g transform="translate(0.000000,200.000000) scale(0.100000,-0.100000)"
fill="#1FDBFC" stroke="none">
<path d="M991 1780 c-9 -28 -8 -30 14 -30 22 0 23 2 14 30 -6 17 -12 30 -14
30 -2 0 -8 -13 -14 -30z"/>
<path d="M956 1688 c-10 -37 -8 -38 49 -38 57 0 59 1 49 38 -5 18 -13 22 -49
22 -36 0 -44 -4 -49 -22z"/>
<path d="M920 1584 c-6 -14 -10 -27 -10 -30 0 -2 43 -4 95 -4 52 0 95 2 95 4
0 3 -4 16 -10 30 -9 25 -13 26 -85 26 -72 0 -76 -1 -85 -26z"/>
<path d="M881 1480 l-10 -30 134 0 134 0 -10 30 -11 30 -113 0 -113 0 -11 -30z"/>
<path d="M1395 1466 c-41 -18 -65 -57 -65 -106 0 -35 -3 -41 -17 -36 -10 2
-34 7 -53 11 -96 18 -107 24 -102 50 4 25 3 25 -59 25 l-64 -1 38 -14 c53 -18
60 -29 13 -21 -36 7 -96 -7 -96 -23 0 -4 -15 -15 -32 -26 -68 -39 -177 -125
-183 -144 -14 -47 23 -101 71 -101 11 0 68 32 126 71 95 64 108 70 137 62 l31
-8 -73 -58 c-117 -91 -109 -76 -176 -317 -4 -15 -50 -61 -112 -112 -118 -99
-139 -122 -139 -152 0 -14 -13 -28 -38 -43 -36 -20 -40 -28 -76 -145 -22 -67
-45 -140 -52 -161 -16 -46 -32 -55 175 98 90 66 182 133 205 148 22 16 50 37
61 48 19 19 19 19 -45 19 -56 0 -62 2 -50 14 17 16 75 19 365 17 146 -1 176
-4 160 -14 -12 -7 -74 -14 -150 -17 l-130 -5 45 -32 c25 -18 70 -50 100 -72
30 -22 117 -85 193 -141 76 -55 139 -100 141 -100 2 0 -18 69 -44 153 -26 83
-58 185 -69 225 l-22 72 -79 0 c-65 0 -78 3 -74 15 4 10 25 15 73 17 l67 3 -8
33 c-8 29 -12 32 -48 32 -31 0 -38 3 -34 15 4 9 19 15 35 15 27 0 28 2 18 27
-15 41 -4 73 26 73 14 0 44 12 67 28 l42 27 -66 3 c-51 2 -70 7 -84 23 l-19
21 111 -3 c110 -3 112 -3 155 26 l43 30 -63 3 c-53 3 -61 5 -51 17 9 11 34 15
89 15 76 0 76 1 147 53 40 28 80 57 90 64 15 10 -1 12 -88 12 -102 1 -108 2
-108 21 0 29 -44 70 -75 70 -16 0 -42 -15 -70 -41 -25 -23 -47 -40 -50 -37 -3
2 -6 15 -7 28 -2 18 3 25 17 28 36 6 67 26 81 54 31 60 7 140 -51 164 -42 17
-61 17 -100 0z m116 -35 c51 -52 36 -133 -30 -161 -98 -40 -177 85 -102 161
22 21 39 29 66 29 27 0 44 -8 66 -29z m-326 -97 c115 -24 136 -32 183 -67 32
-23 60 -53 68 -74 l15 -35 49 46 c52 49 87 58 114 30 34 -33 20 -62 -71 -149
-74 -71 -93 -84 -121 -85 -31 0 -35 4 -54 49 l-21 49 -64 -51 c-34 -28 -63
-54 -63 -57 0 -4 19 -15 41 -26 55 -24 89 -52 89 -71 0 -9 -29 -76 -65 -149
-68 -141 -87 -160 -134 -135 -38 21 -36 52 13 149 25 51 46 96 46 100 0 14
-141 75 -149 66 -4 -5 -18 -47 -31 -94 -13 -47 -26 -90 -29 -96 -14 -26 -265
-224 -284 -224 -47 0 -75 61 -42 94 8 8 62 54 120 101 57 48 107 95 109 104 3
9 17 59 31 111 14 52 28 102 31 111 2 9 52 54 110 100 l106 84 -56 13 -57 12
-102 -70 c-55 -38 -110 -70 -121 -70 -41 0 -70 53 -48 86 7 12 241 174 251
174 3 0 65 -12 136 -26z m555 -199 c0 -12 -13 -15 -61 -15 -54 0 -60 2 -49 15
8 10 30 15 61 15 37 0 49 -4 49 -15z m-392 -98 c2 -11 -3 -17 -14 -17 -10 0
-28 -9 -40 -21 -13 -12 -28 -18 -35 -14 -8 5 1 18 27 41 41 35 57 38 62 11z
m-168 -195 c0 -8 -8 -16 -19 -19 -22 -6 -48 -56 -32 -61 15 -5 -5 -42 -23 -42
-7 0 -18 -11 -24 -25 -15 -33 -15 -35 3 -35 8 0 15 -7 15 -15 0 -9 -9 -15 -23
-15 -13 0 -32 -9 -42 -20 -24 -27 -66 -25 -93 3 l-21 23 49 42 c49 43 53 51
90 189 l11 42 54 -26 c30 -15 55 -33 55 -41z"/>
<path d="M848 1385 c-15 -34 -5 -41 29 -18 15 11 42 25 58 31 28 10 27 10 -23
11 -47 1 -54 -2 -64 -24z"/>
<path d="M151 1175 c3 -2 43 -32 89 -65 l84 -61 70 3 69 3 1 33 1 32 -97 0
c-81 0 -98 3 -98 15 0 12 19 15 113 15 84 0 118 4 133 15 17 13 -2 14 -175 15
-107 0 -192 -2 -190 -5z"/>
<path d="M594 1075 c-18 -14 -17 -14 15 -15 29 0 32 2 21 15 -15 18 -12 18
-36 0z"/>
<path d="M415 984 c39 -27 56 -34 79 -30 16 3 50 6 77 6 31 0 49 4 49 12 0 6
7 20 17 30 16 17 11 18 -128 18 l-144 0 50 -36z"/>
<path d="M536 898 c16 -12 34 -25 40 -30 8 -6 15 2 22 22 l11 30 -51 0 -51 0
29 -22z"/>
<path d="M710 870 c0 -5 7 -10 16 -10 8 0 12 5 9 10 -3 6 -10 10 -16 10 -5 0
-9 -4 -9 -10z"/>
<path d="M690 794 c-13 -33 -13 -34 5 -34 14 0 35 29 35 49 0 22 -31 10 -40
-15z"/>
<path d="M396 603 c-42 -36 -34 -47 31 -40 37 4 62 12 70 23 17 24 9 31 -36
36 -30 2 -46 -2 -65 -19z"/>
<path d="M372 513 c5 -25 39 -27 68 -3 l25 20 -48 0 c-41 0 -48 -3 -45 -17z"/>
</g>
</svg>
