<svg xmlns="http://www.w3.org/2000/svg" xmlns:xlink="http://www.w3.org/1999/xlink" version="1.1" width="129" height="129" viewBox="0 0 1080 1080" xml:space="preserve">
<g transform="matrix(1 0 0 1 540 540)" id="334a7185-33b0-469e-a157-07e8da0a3a5a"  >
</g>
<g transform="matrix(1 0 0 1 540 540)" id="8aeedaa3-5dbe-4656-b279-928dd2555df7"  >
<rect style="stroke: none; stroke-width: 1; stroke-dasharray: none; stroke-linecap: butt; stroke-dashoffset: 0; stroke-linejoin: miter; stroke-miterlimit: 4; fill: rgb(255,255,255); fill-rule: nonzero; opacity: 1;" vector-effect="non-scaling-stroke"  x="-540" y="-540" rx="0" ry="0" width="1080" height="1080" />
</g>
<g transform="matrix(8.64 0 0 8.64 540 319.25)" id="dfb149d4-52a1-454a-92a4-8367cd2ca683"  >
<path style="stroke: rgb(0,0,0); stroke-width: 0; stroke-dasharray: none; stroke-linecap: butt; stroke-dashoffset: 0; stroke-linejoin: miter; stroke-miterlimit: 4; fill: rgb(101,101,101); fill-rule: nonzero; opacity: 1;" vector-effect="non-scaling-stroke"  transform=" translate(-50, -50)" d="M 81.739 19.116 L 18.261 19.116 C 15.591999999999999 19.116 13.398 21.253 13.398 23.926 L 13.398 61.81099999999999 C 13.398 64.428 15.591999999999999 66.619 18.261 66.619 L 45.085 66.619 L 61.969 80.886 L 55.61 66.618 L 81.739 66.618 C 84.412 66.618 86.602 64.428 86.602 61.809999999999995 L 86.602 23.926 C 86.603 21.253 84.412 19.116 81.739 19.116 z M 27.881 28.681 L 59.885 28.681 L 59.885 33.596000000000004 L 27.881 33.596000000000004 L 27.881 28.681 z M 27.881 37.979 L 66.08500000000001 37.979 L 66.08500000000001 42.947 L 27.881 42.947 L 27.881 37.979 z M 27.881 47.328 L 51.819 47.328 L 51.819 52.245000000000005 L 27.881 52.245000000000005 L 27.881 47.328 z" stroke-linecap="round" />
</g>
<g transform="matrix(1 0 0 1 540 780.17)" style="" id="7b73f1d1-cb0d-493b-bac7-31bd947383d7"  >
		<text xml:space="preserve" font-family="Raleway" font-size="105" font-style="normal" font-weight="900" style="stroke: none; stroke-width: 1; stroke-dasharray: none; stroke-linecap: butt; stroke-dashoffset: 0; stroke-linejoin: miter; stroke-miterlimit: 4; fill: rgb(0,0,0); fill-rule: nonzero; opacity: 1; white-space: pre;" ><tspan x="-112.72" y="32.98" >SOQ</tspan></text>
</g>
</svg>